# xmcd
#
# Track frame offsets:
# 150
# 14956
# 31121
# 45703
# 72836
# 90198
# 106865
# 129035
# 154497
# 178395
# 194913
# 203091
# 213950
# 228237
# 248908
# 268731
# 284802
# 301320
#
# Disc length: 4766 seconds
#
# Revision: 0
# Processed by: cddbd v1.4PL0 Copyright (c) Steve Scherf et al.
# Submitted via: Audion 3.0.2 (http://www.panic.com/audion/)
#
DISCID=08129c12
DTITLE=rumored high speed rail hub - 9.4.03 thunderhead
DYEAR=1900
DGENRE=
TTITLE0=bus
TTITLE1=prettypictures
TTITLE2=tellthem
TTITLE3=billow
TTITLE4=fireandice
TTITLE5=moss
TTITLE6=atlantisunderground
TTITLE7=huntergatherers
TTITLE8=ilumits
TTITLE9=fossil
TTITLE10=sparechanger
TTITLE11=mydearfriends
TTITLE12=wholle
TTITLE13=boris
TTITLE14=wearelivinggraves
TTITLE15=charcoal
TTITLE16=joslyn
TTITLE17=cargo
EXTD=
EXTT0=
EXTT1=
EXTT2=
EXTT3=
EXTT4=
EXTT5=
EXTT6=
EXTT7=
EXTT8=
EXTT9=
EXTT10=
EXTT11=
EXTT12=
EXTT13=
EXTT14=
EXTT15=
EXTT16=
EXTT17=
PLAYORDER=
